<svg width="24" height="24" viewBox="0 0 24 24" fill="none" xmlns="http://www.w3.org/2000/svg">
<mask id="mask0" mask-type="alpha" maskUnits="userSpaceOnUse" x="0" y="0" width="24" height="24">
<rect width="24" height="24" fill="#C4C4C4"/>
</mask>
<g mask="url(#mask0)">
<path d="M12 22.8C14.9401 22.8 16.56 21.342 16.56 18.696C16.56 15.1937 12.8698 12.3555 12.7125 12.2367C12.5103 12.0833 12.259 11.9997 12 11.9997C11.741 11.9997 11.4897 12.0833 11.2875 12.2367C11.1302 12.3555 7.44001 15.1937 7.44001 18.696C7.44001 21.342 9.05995 22.8 12 22.8ZM12 14.55C13.265 15.6248 14.0752 17.098 14.28 18.696C14.28 19.897 13.8981 20.64 12 20.64C10.1019 20.64 9.72001 19.897 9.72001 18.696C9.92483 17.098 10.735 15.6248 12 14.55V14.55ZM5.87251 1.43687C5.67031 1.28351 5.41902 1.19995 5.16001 1.19995C4.90099 1.19995 4.6497 1.28351 4.44751 1.43687C4.29019 1.55567 0.600006 4.39386 0.600006 7.89623C0.600006 10.5422 2.21995 12.0002 5.16001 12.0002C8.10007 12.0002 9.72001 10.5422 9.72001 7.89623C9.72001 4.39386 6.02983 1.55567 5.87251 1.43687ZM5.16001 9.8402C3.26191 9.8402 2.88001 9.09717 2.88001 7.89623C3.08483 6.29822 3.895 4.82496 5.16001 3.75019C6.42501 4.82496 7.23518 6.29822 7.44001 7.89623C7.44001 9.09717 7.05811 9.8402 5.16001 9.8402ZM19.5525 1.43687C19.3503 1.28351 19.099 1.19995 18.84 1.19995C18.581 1.19995 18.3297 1.28351 18.1275 1.43687C17.9702 1.55567 14.28 4.39386 14.28 7.89623C14.28 10.5422 15.8999 12.0002 18.84 12.0002C21.7801 12.0002 23.4 10.5422 23.4 7.89623C23.4 4.39386 19.7098 1.55567 19.5525 1.43687ZM18.84 9.8402C16.9419 9.8402 16.56 9.09717 16.56 7.89623C16.7648 6.29822 17.575 4.82496 18.84 3.75019C20.105 4.82496 20.9152 6.29822 21.12 7.89623C21.12 9.09717 20.7381 9.8402 18.84 9.8402Z" fill="#F44F0C"/>
</g>
</svg>
