<svg width="24" height="24" viewBox="0 0 24 24" fill="none" xmlns="http://www.w3.org/2000/svg">
<path d="M12 2C6.47715 2 2 6.47715 2 12C2 17.5228 6.47715 22 12 22C17.5228 22 22 17.5228 22 12C21.9941 6.47962 17.5204 2.0059 12 2ZM12.7143 12C12.7143 12.3945 12.3945 12.7143 12 12.7143H6.28572C5.89122 12.7143 5.57142 12.3945 5.57142 12C5.57142 11.6055 5.89122 11.2857 6.28572 11.2857H11.2857V6.28572C11.2857 5.89122 11.6055 5.57142 12 5.57142C12.3945 5.57142 12.7143 5.89122 12.7143 6.28572V12Z" fill="#F44F0C"/>
</svg>
