<svg width="24" height="24" viewBox="0 0 24 24" fill="none" xmlns="http://www.w3.org/2000/svg">
<mask id="mask0" mask-type="alpha" maskUnits="userSpaceOnUse" x="0" y="0" width="24" height="24">
<rect width="24" height="24" fill="#C4C4C4"/>
</mask>
<g mask="url(#mask0)">
<path d="M12.3907 0.0249999C12.7322 0.10625 13.0865 0.1625 13.415 0.26875C14.9869 0.79375 16.0627 2.23125 16.1078 3.8375C16.1142 4.1625 16.1207 4.49375 16.1142 4.81875C16.1078 4.98125 16.1593 5.0375 16.3333 5.03125C16.8551 5.025 17.3769 5.025 17.9051 5.025C17.9889 5.025 18.0791 5.025 18.1757 5.025C18.1757 5.6875 18.1757 6.325 18.1757 7C18.0662 7 17.9567 7 17.8471 7C17.3511 7 16.8486 7.00625 16.3526 6.99375C16.1722 6.9875 16.1078 7.05 16.1207 7.21875C16.1336 7.4 16.1336 7.58125 16.1207 7.75625C16.1014 7.95625 16.1658 8.03125 16.3848 8.025C16.8937 8.00625 17.3962 8.01875 17.9051 8.01875C17.9889 8.01875 18.0791 8.01875 18.1757 8.01875C18.1757 8.68125 18.1757 9.31875 18.1757 9.98125C18.0919 9.9875 18.0082 9.99375 17.918 9.99375C17.3898 9.99375 16.8551 10 16.3268 9.99375C16.1722 9.99375 16.1142 10.0438 16.1207 10.1938C16.1271 10.4875 16.1142 10.7875 16.1271 11.0812C16.1336 11.175 16.1915 11.2875 16.2688 11.3438C18.5493 13.0688 19.5156 15.325 19.1098 18.0938C18.6717 21.0812 16.1464 23.4875 13.0607 23.9062C12.8417 23.9375 12.6162 23.9688 12.3972 24C12.1395 24 11.8818 24 11.6241 24C11.1023 23.9062 10.5741 23.85 10.0652 23.7188C8.34513 23.2562 6.9923 22.2812 6.00023 20.8438C5.10478 19.5438 4.69894 18.0938 4.82133 16.5312C4.98239 14.4125 5.94225 12.6813 7.69448 11.3875C7.83621 11.2813 7.90063 11.1813 7.90063 11.0063C7.89419 8.6 7.8813 6.19375 7.90707 3.7875C7.9264 1.9125 9.46605 0.2875 11.3858 0.05C11.4631 0.0375 11.5404 0.01875 11.6177 0C11.8754 0.025 12.1331 0.0249999 12.3907 0.0249999ZM14.0785 8.08125C14.0721 8.08125 14.0657 8.08125 14.0657 8.08125C14.0657 7.3875 14.0657 6.69375 14.0657 5.99375C14.0657 5.33125 14.0914 4.66875 14.0721 4C14.0528 3.04375 13.4601 2.3 12.5711 2.08125C11.6435 1.85 10.7029 2.19375 10.2326 2.94375C10.0007 3.31875 9.92987 3.725 9.92987 4.15625C9.92987 6.68125 9.91055 9.2 9.94276 11.725C9.9492 12.2188 9.80103 12.475 9.36297 12.725C7.51411 13.7688 6.58645 15.7437 6.915 17.8062C7.3595 20.5812 10.136 22.4875 12.9705 21.925C14.974 21.525 16.3397 20.3438 16.9259 18.45C17.5315 16.5063 17.0226 14.775 15.5151 13.3563C15.1479 13.0063 14.6648 12.775 14.2396 12.475C14.1687 12.425 14.0785 12.325 14.0785 12.25C14.0721 10.8625 14.0785 9.475 14.0785 8.08125Z" fill="#F44F0C"/>
<path d="M10.9799 5.04376C11.6692 5.04376 12.3263 5.04376 13.0156 5.04376C13.0156 5.15626 13.0156 5.25001 13.0156 5.35001C13.0156 8.03126 13.0156 10.7063 13.0092 13.3875C13.0092 13.5875 13.0607 13.6875 13.2669 13.7563C14.8129 14.3125 15.7084 15.7438 15.5731 17.4063C15.4507 18.8438 14.2461 20.1313 12.7322 20.4375C10.9091 20.8063 9.06665 19.7313 8.55129 18C8.02948 16.2375 8.97002 14.3938 10.7351 13.7563C10.922 13.6875 10.9864 13.6063 10.9864 13.4063C10.9799 10.725 10.9799 8.05001 10.9799 5.36876C10.9799 5.27501 10.9799 5.17501 10.9799 5.04376Z" fill="#F44F0C"/>
</g>
</svg>
